inDegrees=no
num_controls=7
num_derivatives=13
num_iterations=151
num_multipliers=7
num_parameters=0
num_slacks=7
num_states=26
objective=0.445691
objective_accelerations=0.057627
objective_balance=0.003454
objective_effort=0.022740
objective_height=0.356347
objective_ligament=0.005522
solver_duration=2176.083291
status=Solve_Succeeded
success=true
DataType=double
version=3
OpenSimVersion=4.5
endheader
time	/jointset/ground_pelvis/pelvis_tilt/value	/jointset/ground_pelvis/pelvis_tx/value	/jointset/ground_pelvis/pelvis_ty/value	/jointset/hip_l/hip_flexion_l/value	/jointset/hip_l/hip_adduction_l/value	/jointset/hip_l/hip_rotation_l/value	/jointset/back/lumbar_extension/value	/jointset/patellofemoral_l/patellar_flexion_l/value	/jointset/knee_l/knee_flexion_l/value	/jointset/knee_l/knee_adduction_l/value	/jointset/knee_l/knee_rotation_l/value	/jointset/ankle_l/ankle_angle_l/value	/jointset/subtalar_l/subtalar_angle_l/value	/jointset/ground_pelvis/pelvis_tilt/speed	/jointset/ground_pelvis/pelvis_tx/speed	/jointset/ground_pelvis/pelvis_ty/speed	/jointset/hip_l/hip_flexion_l/speed	/jointset/hip_l/hip_adduction_l/speed	/jointset/hip_l/hip_rotation_l/speed	/jointset/back/lumbar_extension/speed	/jointset/patellofemoral_l/patellar_flexion_l/speed	/jointset/knee_l/knee_flexion_l/speed	/jointset/knee_l/knee_adduction_l/speed	/jointset/knee_l/knee_rotation_l/speed	/jointset/ankle_l/ankle_angle_l/speed	/jointset/subtalar_l/subtalar_angle_l/speed	/forceset/tau_hip_flexion_l	/forceset/tau_hip_adduction_l	/forceset/tau_hip_rotation_l	/forceset/tau_knee_flexion_l	/forceset/tau_ankle_angle_l	/forceset/tau_subtalar_angle_l	/forceset/tau_lumbar_extension	lambda_cid13_p0	lambda_cid13_p1	lambda_cid13_p2	lambda_cid13_p3	lambda_cid13_p4	lambda_cid13_p5	lambda_cid14_p0	/jointset/ground_pelvis/pelvis_tilt/accel	/jointset/ground_pelvis/pelvis_tx/accel	/jointset/ground_pelvis/pelvis_ty/accel	/jointset/hip_l/hip_flexion_l/accel	/jointset/hip_l/hip_adduction_l/accel	/jointset/hip_l/hip_rotation_l/accel	/jointset/back/lumbar_extension/accel	/jointset/patellofemoral_l/patellar_flexion_l/accel	/jointset/knee_l/knee_flexion_l/accel	/jointset/knee_l/knee_adduction_l/accel	/jointset/knee_l/knee_rotation_l/accel	/jointset/ankle_l/ankle_angle_l/accel	/jointset/subtalar_l/subtalar_angle_l/accel	gamma_cid13_p0	gamma_cid13_p1	gamma_cid13_p2	gamma_cid13_p3	gamma_cid13_p4	gamma_cid13_p5	gamma_cid14_p0
1.5	-0.3605291720161507	-0.02048324246331645	0.7626557356715123	1.095609670704943	-0.4346565566351754	-0.2135056837187038	-0.2247575873415623	0.8074652501186091	0.8074652501187755	-0.1279264763907222	-0.1464068902970236	0.134839569143222	-0.01515306329473324	0.6577480366277041	0.2668586825879478	0.5311235813042967	-2.432931836797976	0.2096587473644353	-0.7170728945379506	0.3159995444651649	-2.025013666712344	-2.025013666711498	-0.1382430685277487	0.1319289342984163	-0.4172416004254373	0.02598083118029731	-0.1711486499526445	0.02745634075475107	-0.008853360124155937	-0.2057919435009003	0.04014980468588458	0.04364477008953244	0.1661107870399393	-19.1886647351293	-18.64952403032163	6.126182438017477	-7.57545599810886	-520.1042688451479	-62.69919992750218	-24.83668709790297	0.6587303760473819	0.6982412112339774	-0.5227794332676791	-1.27305122411616	0.7038691638198576	-0.2175854550969801	1.458900772608376	-1.302625286707905	-1.302625286707943	0.1393171997102342	0.2053577276469452	-0.4955907840696688	0.5131105864465226	5.313263185678033e-07	2.330169860509601e-07	-3.288966245415627e-06	-1.907750980398109e-07	7.594393781399772e-07	-2.20039501667906e-08	4.718918733454972e-07
1.51	-0.3539188370753112	-0.01778000541453657	0.7679397911346831	1.071218290090807	-0.4325264546523831	-0.2206837754971338	-0.2215259460517197	0.787152057203605	0.7871520572034519	-0.1293068567725753	-0.1450770784286842	0.1306424859392001	-0.01486968540157823	0.664216817184868	0.2737536705358244	0.5255753645789013	-2.445004736949619	0.2163380976210981	-0.7184243913692985	0.3302944853661805	-2.037350724432015	-2.037350724431097	-0.1378447265689126	0.1340414670347449	-0.4221060424818944	0.03069614271119795	-0.1652223004338709	0.02674978240778197	-0.008531901982056696	-0.2029323848526593	0.04035672133804787	0.04285062072583817	0.161285334733214	-18.91607708002489	-18.35268865534612	6.079240966585887	-7.442920821821455	-516.2044506540274	-62.75696124041273	-25.75737471852996	0.625695549320376	0.6798438789479943	-0.5875071908456617	-1.123398625660758	0.6467717266064871	-0.07531745312339211	1.409656528269943	-1.158213333314001	-1.158213333303128	-0.01170534974111417	0.2147862308747305	-0.4715301921848163	0.4512358836237743	5.415995302531737e-07	4.032352642072389e-07	-3.168248487879849e-06	-1.480657507726832e-07	7.783354924168557e-07	7.551302831936495e-08	4.775638070333468e-07
1.52	-0.3472468655981455	-0.01500887522780125	0.7731650315508659	1.04671638263216	-0.4303301984130203	-0.2278716593750706	-0.2181523821969823	0.7667237002476636	0.7667237002471866	-0.1306836133435918	-0.1437260241961215	0.1263988264594638	-0.0145390555036718	0.6700753438928085	0.2804373101790382	0.519360571906696	-2.455037205700159	0.222889598678439	-0.7190313144394339	0.3443840574440673	-2.048046474900378	-2.048046474899387	-0.1375183063585318	0.1361774071410294	-0.426556855568395	0.03543123213057622	-0.1592959509150922	0.02604322406081802	-0.008210443840034644	-0.2000728262044116	0.04056363799021312	0.04205647136215186	0.1564598824264914	-18.64575826071355	-18.05756956040708	6.034989475318748	-7.35373917368721	-512.3641922275305	-62.87815449873857	-26.67739295179673	0.5366796062027033	0.6559715503014117	-0.6560946226296528	-0.8649649438956516	0.6782993239554909	-0.06867070285453522	1.417827007982628	-0.9743638364462087	-0.9743638364461917	0.124932850019158	0.2100392016381287	-0.4128649900783687	0.5170661641420491	5.163621228120758e-07	7.040074633223274e-07	-2.7410760905046e-06	-5.627986063475367e-08	7.482991489566112e-07	1.682251247850406e-07	4.614877425014695e-07
1.53	-0.340519332670022	-0.01217205476432555	0.7783248443363636	1.022124463235091	-0.4280689509442375	-0.2350644085166569	-0.2146390545168395	0.746196949228133	0.7461969492280155	-0.1320554782592458	-0.1423552167961099	0.1221128690762664	-0.01416070680042055	0.6753312469455498	0.2868822743190804	0.5124946246206523	-2.46299369797702	0.2293320875094867	-0.7194082519063701	0.3582379239847202	-2.057002973613072	-2.05700297361199	-0.1368529967460639	0.1379768442763342	-0.4305550965050544	0.0402414887919706	-0.1535377578072924	0.02525840449913494	-0.007860404339970853	-0.1969457635196079	0.04025765737974045	0.04122801899074134	0.1517211771290142	-18.54856916221224	-17.71679374037764	5.982948891190929	-7.057413460846604	-508.6145099208978	-62.95973335781235	-27.59671135183087	0.5050639561835094	0.6321155569300365	-0.7178243957059318	-0.7080183110923426	0.6230795187211154	-0.005297792354589751	1.362633287146994	-0.8112598452420525	-0.8112598452285645	0.03774882840675958	0.1634660185264892	-0.38133111162975	0.4634169775541302	4.533946825491056e-07	1.14349320345615e-06	-1.988295638299915e-06	8.764985630340225e-08	6.662720691506741e-07	2.558320341039563e-07	4.223044298611325e-07
1.54	-0.333742237051096	-0.00927211331723455	0.7834128017261781	0.9974635735269516	-0.4257441074159359	-0.2422575455376615	-0.2109884948092822	0.7255896398301607	0.7255896398304081	-0.1334206063164587	-0.1409667010149435	0.1177893237904683	-0.01373417321847212	0.6799878820532375	0.2930615069021003	0.5049894927700374	-2.468831267914322	0.235608810582204	-0.7191088903229644	0.3718304629269876	-2.064158150588211	-2.06415815058704	-0.1361709346717509	0.1397190833736326	-0.434074436088515	0.04506820787000465	-0.1477795646994987	0.02447358493744816	-0.007510364839847752	-0.1938187008348097	0.03995167676926686	0.04039956661932619	0.146982471831533	-18.45321837934448	-17.37972639376666	5.936104319662553	-6.79935010992253	-504.9100628309242	-63.08917863571372	-28.51597406081331	0.4168260171919398	0.6028252388969493	-0.7839315355439133	-0.4411804759839176	0.6451461722894136	0.06658910721381718	1.365561488305547	-0.6140994889353504	-0.6140994889354097	0.1282833423881564	0.1985995940368405	-0.3170847194386308	0.5203586474699832	4.237166913583812e-07	1.449620878962801e-06	-1.56803812774488e-06	1.781630851470392e-07	6.345879543601084e-07	3.32313836720733e-07	4.063721811840834e-07
1.55	-0.3269216000019267	-0.006311755562588891	0.7884226260764753	0.9727547138046395	-0.423357477836723	-0.2494447951739113	-0.2072036870789797	0.704919677174946	0.704919677175051	-0.134778879217013	-0.1395614131790225	0.1134329361270153	-0.01325947121436085	0.6840255894634624	0.2989595413293458	0.4968773950851753	-2.472579852543086	0.2416819571380024	-0.7182353630901964	0.3850617800950204	-2.06953378955804	-2.069533789557692	-0.1354861149118225	0.1413289250718557	-0.4371221223747374	0.04986835849122227	-0.1416862684534284	0.02334796490938715	-0.00721237862698332	-0.1913994301609428	0.04044797433055181	0.03931683923926612	0.1419643903246162	-18.12399528191703	-16.96708273844721	5.870248846120464	-6.618435484508443	-501.4172259686075	-63.09464127184546	-29.43639829287504	0.3801607572127055	0.5757617849162686	-0.8394111096368019	-0.2875560133471077	0.5831006637675479	0.1139754887866732	1.291521375281595	-0.454292118739685	-0.4542921188631533	0.03842534538780022	0.1404032520970711	-0.2864083981334435	0.4591746272243196	4.323939349682856e-07	1.602096871312068e-06	-1.530904876047027e-06	2.071312298817772e-07	6.609076905655108e-07	3.959775816154806e-07	4.172292018560385e-07
1.56	-0.3200640023477996	-0.003293923615615205	0.7933484170049879	0.9480191965246351	-0.4209111764386432	-0.2566200613463375	-0.2032886452681508	0.6842049589264905	0.6842049589264378	-0.1361303351094616	-0.1381403815672293	0.1090485120377165	-0.01273690143248205	0.6873800030446825	0.304556345367706	0.4881828084131329	-2.474162779452833	0.247543174355499	-0.7167121975582924	0.3978772790322305	-2.073109269237189	-2.073109269237665	-0.134807533048188	0.1428678385453592	-0.4396817212577362	0.05464176342350662	-0.1355929722073568	0.02222234488132906	-0.00691439241420929	-0.1889801594870677	0.04094427189183845	0.03823411185921134	0.1369463088176993	-17.79601011814863	-16.5584012376972	5.809799482904054	-6.476783473817591	-497.9572673173533	-63.14966959811478	-30.35534464913441	0.280167251391012	0.542579161119907	-0.9004293329799693	-0.008048932180632936	0.6027603046290325	0.1965167670409964	1.282397842140996	-0.2540676307994573	-0.2540676307994733	0.1270357631293794	0.1844139490929368	-0.2194672387939433	0.5150095096833303	4.162006919657923e-07	1.720485650296415e-06	-1.405842180143629e-06	2.452853171170006e-07	6.422121118433095e-07	4.379303068381763e-07	4.125481464286951e-07
1.57	-0.3131763567581199	-0.0002217838044497933	0.7981843749119767	0.9232791028456752	-0.4184072435814867	-0.2637773958157885	-0.1992475721444344	0.663463888830472	0.663463888830423	-0.1374743443133258	-0.1367046536015793	0.104641025473195	-0.01216655876630197	0.6900358816921638	0.3098046645057364	0.4789179726732072	-2.473476136515739	0.2532011516841609	-0.7146454210550488	0.4102482675940292	-2.074787461704894	-2.074787461705508	-0.1339960965204046	0.14426579937279	-0.4417395796395797	0.05941282291391884	-0.1297555020976766	0.0211126421379886	-0.006592542242266091	-0.1860767660968064	0.04056838752368438	0.03714181808620674	0.1320643233179686	-17.76142805621762	-16.09678912552967	5.743876706551398	-5.997787736913229	-494.6455214001462	-63.18595076044956	-31.25704360584198	0.2413070988724827	0.5059801362836387	-0.9530259240318927	0.1639936193373892	0.5408710735251583	0.2284878465690564	1.201087645649551	-0.07717672887475788	-0.07717672889551985	0.05818682773586178	0.1154402631827195	-0.1874826275437373	0.4558894552505351	3.689193406978021e-07	1.796265412574613e-06	-1.170867678983298e-06	2.949218324778304e-07	5.672473894616042e-07	4.527442574708075e-07	3.884444958772289e-07
1.58	-0.3062655505964756	0.002900843567323721	0.8029249814156595	0.8985572701386232	-0.415848020025735	-0.2709107165692866	-0.1950854614786098	0.6427155404749549	0.6427155404749045	-0.1388102413058922	-0.1352553554049244	0.1002152528269223	-0.01154895844791167	0.6920121174374753	0.3146538574893263	0.4691125277519579	-2.470510585071326	0.2586013140744382	-0.7119094543676837	0.4220847874538368	-2.07456492113735	-2.074564921138103	-0.1331850907872989	0.1455818847448027	-0.4433389376079909	0.06409329386554571	-0.1239180319879964	0.02000293939464895	-0.006270692070370203	-0.1831733727065401	0.04019250315553129	0.03604952431320402	0.1271823378182373	-17.73516199606061	-15.63780203489613	5.683034964787888	-5.529502524172003	-491.4635893840875	-63.27832717293615	-32.13530228533695	0.1442386709570801	0.4627539302317904	-1.008551169244687	0.447732769283	0.551197316952161	0.3303548038653098	1.175504101742775	0.1260789762502514	0.1260789762502584	0.1269496041938341	0.1680388580093015	-0.1277671561074935	0.4968918019262598	3.271637340146614e-07	1.919539577781402e-06	-9.31938037833919e-07	3.46820087907256e-07	5.062180451103748e-07	4.676951895332928e-07	3.694315188957573e-07
1.59	-0.2993384963490223	0.006069972636036434	0.8075649287589071	0.8738765806656631	-0.4132360782271383	-0.2780142495179956	-0.1908077907135234	0.6219791765303522	0.621979176530179	-0.1401374183586563	-0.1337940029064796	0.09577599373530005	-0.01088484603926524	0.6932744974292758	0.3191048446764321	0.45879674768553	-2.465239188612505	0.2637373220870317	-0.7086914489167394	0.4333447928549558	-2.0723738079817	-2.07237380798252	-0.1322484314115009	0.1466705110471155	-0.4444201003446268	0.06871728388535542	-0.1177815791466009	0.01852484019122742	-0.006041774058059587	-0.1809930931326046	0.04090846856207064	0.03470169935104356	0.1220848961793895	-17.37942785217002	-15.11981054945029	5.606257939305713	-5.293006233756933	-488.4934953842761	-63.23328606308811	-32.98459059424103	0.09857368305406108	0.4262912857107435	-1.055032606957819	0.6250356528412337	0.4871185570253885	0.3336829576602994	1.085562853030335	0.3156664326734835	0.3156664326635044	0.07765322846278273	0.07638433757138273	-0.08429886033144174	0.4430766001633205	2.929073521252447e-07	2.107270432676989e-06	-6.87640706699405e-07	4.017878477154898e-07	4.641009995147903e-07	4.828320249648659e-07	3.573273131878497e-07
